<svg width="18" height="18" viewBox="0 0 18 18" fill="none" xmlns="http://www.w3.org/2000/svg">
<path d="M7.97997 13.3954C8.06268 13.4781 8.16086 13.5437 8.26892 13.5884C8.37698 13.6332 8.49279 13.6562 8.60976 13.6562C8.72672 13.6562 8.84254 13.6332 8.95059 13.5884C9.05865 13.5437 9.15684 13.4781 9.23954 13.3954L12.5983 10.0366C12.7653 9.86961 12.8591 9.64308 12.8591 9.40687C12.8591 9.17067 12.7653 8.94413 12.5983 8.77711C12.4312 8.61009 12.2047 8.51625 11.9685 8.51625C11.7323 8.51625 11.5058 8.61009 11.3387 8.77711L9.50038 10.6155V0.890625C9.50038 0.654417 9.40655 0.427883 9.23952 0.260858C9.0725 0.0938335 8.84597 0 8.60976 0C8.37355 0 8.14701 0.0938335 7.97999 0.260858C7.81297 0.427883 7.71913 0.654417 7.71913 0.890625V10.6155L5.88077 8.77711C5.71375 8.61009 5.48721 8.51625 5.25101 8.51625C5.0148 8.51625 4.78827 8.61009 4.62124 8.77711C4.45422 8.94413 4.36039 9.17067 4.36039 9.40687C4.36039 9.64308 4.45422 9.86961 4.62124 10.0366L7.97997 13.3954Z" fill="white"/>
<path d="M16.3281 7.71875C16.0919 7.71875 15.8654 7.81258 15.6984 7.97961C15.5313 8.14663 15.4375 8.37317 15.4375 8.60938V15.4375H1.78125V8.60938C1.78125 8.37317 1.68742 8.14663 1.52039 7.97961C1.35337 7.81258 1.12683 7.71875 0.890625 7.71875C0.654417 7.71875 0.427883 7.81258 0.260858 7.97961C0.0938335 8.14663 0 8.37317 0 8.60938V15.7344C0 16.1281 0.156389 16.5056 0.434763 16.784C0.713138 17.0624 1.09069 17.2188 1.48438 17.2188H15.7344C16.1281 17.2188 16.5056 17.0624 16.784 16.784C17.0624 16.5056 17.2188 16.1281 17.2188 15.7344V8.60938C17.2188 8.37317 17.1249 8.14663 16.9579 7.97961C16.7909 7.81258 16.5643 7.71875 16.3281 7.71875Z" fill="white"/>
</svg>
