<svg width="29" height="35" viewBox="0 0 29 35" fill="none" xmlns="http://www.w3.org/2000/svg">
<path d="M28.8555 25.3407C28.8555 25.7715 25.4307 34.9384 20.4882 34.9384C19.2783 34.9384 18.4169 34.5898 17.6581 34.2617C17.0019 33.9746 16.4072 33.7285 15.5254 33.6669C15.4023 33.6464 15.2793 33.6464 15.1357 33.6464C14.582 33.6464 13.8848 33.913 13.1466 34.2002C12.1415 34.5693 10.9932 35 9.7011 35H9.66016C4.4511 34.9795 0.144531 24.3359 0.144531 18.9218C0.144531 10.0829 6.78906 8.13468 9.33196 8.13468C10.4804 8.13468 11.7314 8.58592 12.7978 8.99608C13.5566 9.26268 14.3564 9.54972 14.7871 9.54972C14.9511 9.54972 15.2177 9.46776 15.5254 9.36522C15.7304 9.28312 15.9765 9.20109 16.2022 9.09862C17.3712 8.64738 18.8066 8.07323 20.4883 8.07323C20.4883 8.07323 20.4883 8.07323 20.5088 8.07323C21.7598 8.07323 25.5538 8.33983 27.8507 11.7646L28.3839 12.585L27.6046 13.1592C26.5176 14 24.5078 15.5176 24.5078 18.5116C24.5078 22.0595 26.7842 23.4336 27.8711 24.0898C28.3428 24.3769 28.8555 24.6845 28.8555 25.3407Z" fill="#939393"/>
<path d="M21.0215 0C21.124 4.18353 18.4785 7.23235 15.5254 7.622C15.1973 7.68359 14.8485 7.7041 14.5 7.68359C14.295 6.26855 14.7256 4.83301 15.5254 3.60254C16.7969 1.61321 19.0526 0 21.0215 0Z" fill="#939393"/>
<path d="M15.5254 7.622V3.60254C16.7969 1.61321 19.0526 0 21.0215 0C21.124 4.18353 18.4785 7.23235 15.5254 7.622Z" fill="#939393"/>
<path d="M28.8555 25.3407C28.8555 25.7715 25.4307 34.9384 20.4882 34.9384C19.2783 34.9384 18.4169 34.5898 17.6581 34.2617C17.0019 33.9746 16.4072 33.7285 15.5254 33.6669V9.36522C15.7304 9.28312 15.9765 9.20109 16.2022 9.09862C17.3712 8.64738 18.8066 8.07323 20.4883 8.07323C20.4883 8.07323 20.4883 8.07323 20.5088 8.07323C21.7598 8.07323 25.5538 8.33983 27.8507 11.7646L28.3839 12.585L27.6046 13.1592C26.5176 14 24.5078 15.5176 24.5078 18.5116C24.5078 22.0595 26.7842 23.4336 27.8711 24.0898C28.3428 24.3769 28.8555 24.6845 28.8555 25.3407Z" fill="#939393"/>
</svg>
