<svg width="35" height="35" viewBox="0 0 35 35" fill="none" xmlns="http://www.w3.org/2000/svg">
<g clip-path="url(#clip0)">
<path d="M22.8461 14.6389C22.8461 13.78 21.8477 13.3008 21.1777 13.8401C19.204 15.4289 19.1474 16.4744 17.5003 16.4744C15.8525 16.4744 15.8142 15.4429 13.823 13.8401C13.1539 13.3016 12.1547 13.7787 12.1547 14.6389C12.1547 18.0266 9.74231 18.6805 9.74231 22.6041C9.74231 22.9349 9.90193 23.2455 10.1709 23.438C10.2076 23.4642 10.3192 23.5441 10.3334 23.8434C10.5544 28.4463 12.7261 30.3998 10.9983 32.1844C10.5114 32.6874 10.6611 33.5212 11.2931 33.8231C12.8596 34.5709 15.1221 34.9997 17.5003 34.9997C19.8803 34.9997 22.1428 34.5708 23.7079 33.8229C24.3391 33.5213 24.4896 32.6876 24.0024 32.1844C22.2754 30.4007 24.4464 28.4439 24.6674 23.8429C24.6815 23.5441 24.7931 23.4642 24.8298 23.438C25.0988 23.2455 25.2584 22.9349 25.2584 22.6041C25.2584 18.6867 22.8461 18.0202 22.8461 14.6389Z" fill="#F7F7F7"/>
<path d="M22.846 14.6389C22.846 13.78 21.8477 13.3008 21.1777 13.8401C19.2041 15.4287 19.1474 16.4742 17.5006 16.4744V34.9997C19.8805 34.9997 22.143 34.5708 23.7079 33.8229C24.3391 33.5213 24.4896 32.6876 24.0024 32.1844C22.2754 30.4007 24.4464 28.4439 24.6673 23.8429C24.6815 23.5441 24.7931 23.4642 24.8298 23.438C25.0988 23.2455 25.2584 22.9349 25.2584 22.6041C25.2584 18.6867 22.846 18.0202 22.846 14.6389Z" fill="#E0E0E0"/>
<path d="M27.4948 8.85664C27.2353 3.22308 23.0915 0 17.5004 0C11.9085 0 7.7655 3.22383 7.50608 8.85678C7.1919 15.6925 2.46033 18.7713 5.38789 25.2543C5.82259 26.2167 8.69854 26.7833 8.46242 24.4149C8.37267 23.5126 9.72502 23.1177 10.1692 23.4369C10.846 23.9239 11.7932 23.4388 11.7932 22.6045C11.7932 19.3895 14.2056 18.7013 14.2056 14.6392C14.2056 14.3298 14.0658 14.0368 13.8252 13.8421C13.4916 13.5721 13.0878 13.2691 12.6245 12.9411C12.9335 12.8644 13.2546 12.7927 13.5789 12.7278C14.3807 12.5674 14.6803 11.576 14.1037 10.9981C13.7078 10.6013 13.4715 9.92906 13.4715 9.19987C13.4715 8.21372 13.9971 7.11081 14.7006 7.11081C15.404 7.11081 15.9296 8.21372 15.9296 9.19987C15.9296 9.67025 15.8323 10.1157 15.652 10.485C14.7849 11.063 15.24 12.431 16.2875 12.362C17.0846 12.3095 17.8602 12.3058 18.7135 12.362C19.7609 12.4305 20.2161 11.063 19.349 10.485C19.1687 10.1157 19.0715 9.67025 19.0715 9.19987C19.0715 8.21372 19.5971 7.11081 20.3005 7.11081C21.0039 7.11081 21.5295 8.21372 21.5295 9.19987C21.5295 9.92906 21.2932 10.6013 20.8973 10.9981C20.3198 11.5769 20.6216 12.5676 21.4221 12.7278C21.7462 12.7926 22.0671 12.8643 22.3766 12.9411C21.9136 13.2688 21.5096 13.572 21.1758 13.8421C20.9352 14.0368 20.7955 14.3297 20.7955 14.6392C20.7955 18.7184 23.2079 19.375 23.2079 22.6045C23.2079 23.4381 24.1545 23.9241 24.8319 23.4369C25.2768 23.1172 26.6283 23.5129 26.5386 24.4149C26.3022 26.7874 29.1818 26.2093 29.6132 25.2543C32.5415 18.769 27.809 15.6954 27.4948 8.85664Z" fill="#294A4A"/>
<path d="M27.4946 8.85664C27.2352 3.22314 23.0915 6.83594e-05 17.5005 0V12.3214C17.8939 12.3214 18.2941 12.3344 18.7133 12.362C19.7607 12.4305 20.2159 11.063 19.3488 10.485C19.1685 10.1157 19.0712 9.67025 19.0712 9.19987C19.0712 8.21372 19.5968 7.11081 20.3002 7.11081C21.0036 7.11081 21.5292 8.21372 21.5292 9.19987C21.5292 9.92906 21.2929 10.6013 20.8971 10.9981C20.3196 11.5769 20.6213 12.5676 21.4219 12.7278C21.746 12.7926 22.0668 12.8643 22.3763 12.9411C21.9134 13.2688 21.5094 13.572 21.1756 13.8421C20.9349 14.0368 20.7952 14.3297 20.7952 14.6392C20.7952 18.7184 23.2076 19.375 23.2076 22.6045C23.2076 23.4381 24.1543 23.9241 24.8316 23.4369C25.2765 23.1172 26.628 23.5129 26.5384 24.4149C26.3019 26.7874 29.1815 26.2093 29.6129 25.2543C32.5414 18.769 27.8089 15.6954 27.4946 8.85664Z" fill="#1C2323"/>
<path d="M20.3004 5.06006C19.1012 5.06006 18.0718 5.83341 17.5004 7.01486C16.9289 5.83341 15.8995 5.06006 14.7003 5.06006C12.9151 5.06006 11.4205 6.84458 11.4205 9.1999C11.4205 10.4789 11.8692 11.6623 12.6517 12.4466C12.8931 12.6885 13.2401 12.7953 13.5782 12.728C14.5278 12.5404 15.3188 12.426 16.4117 12.3539C16.7268 12.3332 17.0149 12.1683 17.1925 11.9071C17.3072 11.7384 17.4096 11.5582 17.5004 11.3697C17.5913 11.5582 17.6937 11.7384 17.8084 11.9071C17.986 12.1683 18.274 12.3332 18.5892 12.3539C19.6886 12.4264 20.4592 12.5406 21.4227 12.728C21.7605 12.7953 22.1078 12.6886 22.3492 12.4466C23.1315 11.6623 23.5803 10.4789 23.5803 9.1999C23.5802 6.82694 22.0728 5.06006 20.3004 5.06006Z" fill="#F7F7F7"/>
<path d="M20.3003 5.06006C19.1013 5.06006 18.072 5.83327 17.5005 7.01445V11.3701C17.5913 11.5585 17.6936 11.7385 17.8082 11.9071C17.9858 12.1683 18.2739 12.3331 18.589 12.3538C19.6885 12.4263 20.4591 12.5405 21.4225 12.7279C21.7604 12.7952 22.1076 12.6885 22.349 12.4465C23.1314 11.6622 23.5802 10.4788 23.5802 9.19984C23.5801 6.82694 22.0728 5.06006 20.3003 5.06006Z" fill="#E0E0E0"/>
<path d="M12.3819 23.7461C12.2734 21.464 9.85975 20.6631 7.95888 21.76C7.14369 22.2303 6.61644 22.9554 6.45757 23.7853C5.59651 23.4611 4.114 23.0291 2.93337 24.2099C1.75786 25.3855 2.16672 26.8251 2.50811 27.7337C0.485967 28.1178 -0.537715 30.6255 0.285264 32.2936C0.689815 33.1136 1.48572 33.6111 2.4688 33.6585C5.49732 33.8045 7.42096 34.9988 9.39586 34.9988C10.4847 34.9988 11.5101 34.6151 12.4717 33.6114C15.2361 30.7563 12.5931 28.1496 12.3819 23.7461Z" fill="#FFD664"/>
<path d="M32.4925 27.7335C32.8339 26.8249 33.2428 25.3852 32.0673 24.2096C30.8867 23.029 29.4041 23.4608 28.5431 23.785C28.3843 22.955 27.857 22.23 27.0418 21.7597C25.1382 20.6614 22.7271 21.4659 22.6188 23.7453C22.4055 28.1889 19.7263 30.7738 22.5972 33.6803C23.5906 34.674 24.5886 34.9986 25.6051 34.9986C27.5802 34.9986 29.5032 33.8043 32.5319 33.6583H32.5318C33.5149 33.611 34.3108 33.1134 34.7154 32.2934C35.5341 30.634 34.5232 28.119 32.4925 27.7335Z" fill="#FF9842"/>
<path d="M22.8729 10.9515C19.2926 10.0627 15.8306 10.0323 12.1283 10.9514C10.4251 11.373 10.0077 13.6032 11.4392 14.6149C12.7864 15.5684 13.1626 15.963 13.8057 16.6503C14.6683 17.5723 15.5604 18.5256 17.5003 18.5256C19.4403 18.5256 20.3323 17.5723 21.195 16.6503C21.8223 15.9798 22.2017 15.5773 23.5615 14.6149C24.993 13.6023 24.5753 11.3729 22.8729 10.9515Z" fill="#FFD664"/>
<path d="M22.8728 10.9512C21.0673 10.5029 19.2918 10.2734 17.5005 10.2734V18.5252C19.4403 18.5252 20.3323 17.5719 21.1949 16.65C21.8222 15.9795 22.2017 15.577 23.5614 14.6146C24.9929 13.602 24.5752 11.3726 22.8728 10.9512Z" fill="#FF9842"/>
<path d="M20.4503 9.47148C21.0448 9.47148 21.5267 8.9896 21.5267 8.39517C21.5267 7.80073 21.0448 7.31885 20.4503 7.31885C19.8559 7.31885 19.374 7.80073 19.374 8.39517C19.374 8.9896 19.8559 9.47148 20.4503 9.47148Z" fill="#1C2323"/>
<path d="M14.5496 9.47148C15.144 9.47148 15.6259 8.9896 15.6259 8.39517C15.6259 7.80073 15.144 7.31885 14.5496 7.31885C13.9552 7.31885 13.4733 7.80073 13.4733 8.39517C13.4733 8.9896 13.9552 9.47148 14.5496 9.47148Z" fill="#294A4A"/>
</g>
<defs>
<clipPath id="clip0">
<rect width="35" height="35" fill="white"/>
</clipPath>
</defs>
</svg>
