<svg width="707" height="316" viewBox="0 0 707 316" fill="none" xmlns="http://www.w3.org/2000/svg">
<circle cx="415.5" cy="57.5" r="10" stroke="#3D3BF2" stroke-linejoin="round" stroke-dasharray="1 1"/>
<circle cx="415.5" cy="57.5" r="5" stroke="#3D3BF2" stroke-width="5"/>
<circle cx="443.5" cy="54.5" r="10" stroke="#3D3BF2" stroke-linejoin="round" stroke-dasharray="1 1"/>
<circle cx="443.5" cy="54.5" r="5" stroke="#3D3BF2" stroke-width="5"/>
<circle cx="376.5" cy="60.5" r="10" stroke="#3D3BF2" stroke-linejoin="round" stroke-dasharray="1 1"/>
<circle cx="376.5" cy="60.5" r="5" stroke="#3D3BF2" stroke-width="5"/>
<circle cx="357.5" cy="80.5" r="10" stroke="#3D3BF2" stroke-linejoin="round" stroke-dasharray="1 1"/>
<circle cx="357.5" cy="80.5" r="5" stroke="#3D3BF2" stroke-width="5"/>
<circle cx="370.5" cy="36.5" r="10" stroke="#3D3BF2" stroke-linejoin="round" stroke-dasharray="1 1"/>
<circle cx="370.5" cy="36.5" r="5" stroke="#3D3BF2" stroke-width="5"/>
<circle cx="362.5" cy="57.5" r="10" stroke="#3D3BF2" stroke-linejoin="round" stroke-dasharray="1 1"/>
<circle cx="362.5" cy="57.5" r="5" stroke="#3D3BF2" stroke-width="5"/>
<circle cx="329.5" cy="49.5" r="10" stroke="#3D3BF2" stroke-linejoin="round" stroke-dasharray="1 1"/>
<circle cx="329.5" cy="49.5" r="5" stroke="#3D3BF2" stroke-width="5"/>
<circle cx="336.5" cy="92.5" r="10" stroke="#3D3BF2" stroke-linejoin="round" stroke-dasharray="1 1"/>
<circle cx="336.5" cy="92.5" r="5" stroke="#3D3BF2" stroke-width="5"/>
<circle cx="308.5" cy="101.5" r="10" stroke="#3D3BF2" stroke-linejoin="round" stroke-dasharray="1 1"/>
<circle cx="308.5" cy="101.5" r="5" stroke="#3D3BF2" stroke-width="5"/>
<circle cx="412.5" cy="15.5" r="10" stroke="#3D3BF2" stroke-linejoin="round" stroke-dasharray="1 1"/>
<circle cx="412.5" cy="15.5" r="5" stroke="#3D3BF2" stroke-width="5"/>
<circle cx="376.5" cy="10.5" r="10" stroke="#3D3BF2" stroke-linejoin="round" stroke-dasharray="1 1"/>
<circle cx="376.5" cy="10.5" r="5" stroke="#3D3BF2" stroke-width="5"/>
<circle cx="457.5" cy="44.5" r="10" stroke="#3D3BF2" stroke-linejoin="round" stroke-dasharray="1 1"/>
<circle cx="457.5" cy="44.5" r="5" stroke="#3D3BF2" stroke-width="5"/>
<circle cx="147.5" cy="65.5" r="10" stroke="#3D3BF2" stroke-linejoin="round" stroke-dasharray="1 1"/>
<circle cx="147.5" cy="65.5" r="5" stroke="#3D3BF2" stroke-width="5"/>
<circle cx="123.5" cy="92.5" r="10" stroke="#3D3BF2" stroke-linejoin="round" stroke-dasharray="1 1"/>
<circle cx="123.5" cy="92.5" r="5" stroke="#3D3BF2" stroke-width="5"/>
<circle cx="126.5" cy="113.5" r="10" stroke="#3D3BF2" stroke-linejoin="round" stroke-dasharray="1 1"/>
<circle cx="126.5" cy="113.5" r="5" stroke="#3D3BF2" stroke-width="5"/>
<circle cx="139.5" cy="87.5" r="10" stroke="#3D3BF2" stroke-linejoin="round" stroke-dasharray="1 1"/>
<circle cx="139.5" cy="87.5" r="5" stroke="#3D3BF2" stroke-width="5"/>
<circle cx="110.5" cy="38.5" r="10" stroke="#3D3BF2" stroke-linejoin="round" stroke-dasharray="1 1"/>
<circle cx="110.5" cy="38.5" r="5" stroke="#3D3BF2" stroke-width="5"/>
<circle cx="10.5" cy="95.5" r="10" stroke="#3D3BF2" stroke-linejoin="round" stroke-dasharray="1 1"/>
<circle cx="10.5" cy="95.5" r="5" stroke="#3D3BF2" stroke-width="5"/>
<circle cx="31.5" cy="119.5" r="10" stroke="#3D3BF2" stroke-linejoin="round" stroke-dasharray="1 1"/>
<circle cx="31.5" cy="119.5" r="5" stroke="#3D3BF2" stroke-width="5"/>
<circle cx="28.5" cy="98.5" r="10" stroke="#3D3BF2" stroke-linejoin="round" stroke-dasharray="1 1"/>
<circle cx="28.5" cy="98.5" r="5" stroke="#3D3BF2" stroke-width="5"/>
<circle cx="402.5" cy="31.5" r="10" stroke="#3D3BF2" stroke-linejoin="round" stroke-dasharray="1 1"/>
<circle cx="402.5" cy="31.5" r="5" stroke="#3D3BF2" stroke-width="5"/>
<circle cx="675.5" cy="294.5" r="10" stroke="#3D3BF2" stroke-linejoin="round" stroke-dasharray="1 1"/>
<circle cx="675.5" cy="294.5" r="5" stroke="#3D3BF2" stroke-width="5"/>
<circle cx="696.5" cy="305.5" r="10" stroke="#3D3BF2" stroke-linejoin="round" stroke-dasharray="1 1"/>
<circle cx="696.5" cy="305.5" r="5" stroke="#3D3BF2" stroke-width="5"/>
</svg>
