<svg width="22" height="27" viewBox="0 0 22 27" fill="none" xmlns="http://www.w3.org/2000/svg">
<path d="M3.74359 19.6951C2.006 17.0719 0.761048 11.4775 0.250927 7.33279C0.0448816 5.65869 1.39369 4.20544 3.05201 3.89716C4.13716 3.69543 5.24521 3.41647 5.94872 3.07338C7.42823 2.35181 8.6134 1.58191 9.59737 0.936501C10.5024 0.342885 11.641 0.360203 12.5454 0.9547C13.5352 1.60537 14.8034 2.40093 16.3077 3.07338C17.2912 3.51303 18.1995 3.79275 19.0209 3.96982C20.6405 4.31898 21.9971 5.6122 21.8082 7.25825C21.3311 11.4155 20.011 16.6058 18.3846 19.6951C17.1851 21.9734 14.7833 24.133 12.8624 25.6496C11.8181 26.4741 10.3397 26.4523 9.31779 25.6002C7.56658 24.14 5.28729 22.0255 3.74359 19.6951Z" fill="url(#paint0_linear)"/>
<path d="M10.1731 6.88086H14.9999L11.9589 11.1086H14.8446L7.74027 18.9806L10.2895 13.5079H7.5332L10.1731 6.88086Z" fill="black"/>
<defs>
<linearGradient id="paint0_linear" x1="7.66333" y1="-30.375" x2="49.5516" y2="-5.80054" gradientUnits="userSpaceOnUse">
<stop stop-color="#FED507"/>
<stop offset="1" stop-color="#FE590F"/>
</linearGradient>
</defs>
</svg>
