<svg width="131" height="18" viewBox="0 0 131 18" fill="none" xmlns="http://www.w3.org/2000/svg">
<path d="M10.7627 17.2031H6.49707L0.813477 0.292969H4.77441L8.6416 13.5586H8.72363L12.5908 0.292969H16.4463L10.7627 17.2031Z" fill="#A22CFF"/>
<path d="M18.1807 0.292969H25.0596C26.8018 0.292969 28.2119 0.824219 29.29 1.88672C30.376 2.94922 30.9189 4.34766 30.9189 6.08203C30.9189 7.80859 30.3604 9.20703 29.2432 10.2773C28.126 11.3398 26.6728 11.8711 24.8838 11.8711H21.7197V17.2031H18.1807V0.292969ZM21.7197 3.09375V9.10547H24.1103C25.126 9.10547 25.915 8.84375 26.4775 8.32031C27.04 7.79688 27.3213 7.05469 27.3213 6.09375C27.3213 5.13281 27.04 4.39453 26.4775 3.87891C25.9228 3.35547 25.1377 3.09375 24.1221 3.09375H21.7197Z" fill="#A22CFF"/>
<path d="M36.4033 17.2031H33.0166V0.292969H35.9697L43.8682 11.3086H43.9619V0.292969H47.3486V17.2031H44.4189L36.5088 6.12891H36.4033V17.2031Z" fill="#A22CFF"/>
<path d="M49.54 12.3867H52.9502C53.0283 13.0742 53.3916 13.6328 54.04 14.0625C54.6963 14.4844 55.4971 14.6953 56.4424 14.6953C57.3799 14.6953 58.1416 14.4961 58.7275 14.0977C59.3213 13.6914 59.6182 13.1758 59.6182 12.5508C59.6182 12.0039 59.3994 11.5625 58.9619 11.2266C58.5244 10.8906 57.7939 10.6094 56.7705 10.3828L54.5674 9.90234C51.4658 9.23828 49.915 7.66406 49.915 5.17969C49.915 3.63281 50.5166 2.38281 51.7197 1.42969C52.9307 0.476562 54.4854 0 56.3838 0C58.3369 0 59.8955 0.464844 61.0596 1.39453C62.2236 2.31641 62.8213 3.54688 62.8525 5.08594H59.5361C59.4814 4.375 59.165 3.81641 58.5869 3.41016C58.0166 2.99609 57.2861 2.78906 56.3955 2.78906C55.5205 2.78906 54.8135 2.98047 54.2744 3.36328C53.7432 3.74609 53.4775 4.25 53.4775 4.875C53.4775 5.39062 53.6924 5.80859 54.1221 6.12891C54.5596 6.44922 55.2666 6.72266 56.2432 6.94922L58.2939 7.38281C59.9893 7.74219 61.2236 8.30469 61.9971 9.07031C62.7705 9.82812 63.1572 10.8516 63.1572 12.1406C63.1572 13.7813 62.54 15.0859 61.3057 16.0547C60.0713 17.0156 58.4033 17.4961 56.3018 17.4961C54.2627 17.4961 52.6377 17.043 51.4268 16.1367C50.2236 15.2227 49.5947 13.9727 49.54 12.3867Z" fill="#A22CFF"/>
<path d="M80.0322 17.2031H76.4932V10.0781H68.876V17.2031H65.3369V0.292969H68.876V7.16016H76.4932V0.292969H80.0322V17.2031Z" fill="#A22CFF"/>
<path d="M86.3838 17.2031H82.8447V0.292969H86.3838V17.2031Z" fill="#A22CFF"/>
<path d="M100.399 14.2734V17.2031H89.1963V0.292969H100.399V3.21094H92.7354V7.28906H99.9658V10.0078H92.7354V14.2734H100.399Z" fill="#A22CFF"/>
<path d="M113.888 14.2734V17.2031H102.954V0.292969H106.493V14.2734H113.888Z" fill="#A22CFF"/>
<path d="M115.985 0.292969H122.442C124.989 0.292969 126.97 1.02344 128.384 2.48438C129.798 3.94531 130.505 6.01172 130.505 8.68359C130.505 11.3633 129.794 13.4531 128.372 14.9531C126.958 16.4531 124.981 17.2031 122.442 17.2031H115.985V0.292969ZM119.524 3.21094V14.2734H122.021C123.606 14.2734 124.813 13.8008 125.642 12.8555C126.478 11.9023 126.896 10.5156 126.896 8.69531C126.896 6.92969 126.474 5.57422 125.63 4.62891C124.786 3.68359 123.583 3.21094 122.021 3.21094H119.524Z" fill="#A22CFF"/>
</svg>
