<svg width="40" height="48" viewBox="0 0 40 48" fill="none" xmlns="http://www.w3.org/2000/svg">
<g clip-path="url(#clip0)">
<g opacity="0.24" filter="url(#filter0_f)">
<path opacity="0.24" d="M10.7927 31.7917C7.89581 27.3891 6.12607 16.7808 5.99994 11.7912C7.21914 11.7912 11.2242 11.0918 13.2999 10.2818C16.2999 9.11094 18.5357 6.93904 20.1333 6.0166C21.2263 6.72942 23.4053 9.14963 26.5585 10.2818C29.7117 11.4138 32.5999 11.867 33.9999 11.8005V12.4201C33.9999 17.9549 31.6035 26.6344 29.2071 31.7917C27.4802 35.5084 22.4804 39.8423 20.1261 41.3518C18.3183 40.01 13.5943 36.0494 10.7927 31.7917Z" fill="url(#paint0_radial)" fill-opacity="0.9"/>
<path opacity="0.24" d="M10.7927 31.7917C7.89581 27.3891 6.12607 16.7808 5.99994 11.7912C7.21914 11.7912 11.2242 11.0918 13.2999 10.2818C16.2999 9.11094 18.5357 6.93904 20.1333 6.0166C21.2263 6.72942 23.4053 9.14963 26.5585 10.2818C29.7117 11.4138 32.5999 11.867 33.9999 11.8005V12.4201C33.9999 17.9549 31.6035 26.6344 29.2071 31.7917C27.4802 35.5084 22.4804 39.8423 20.1261 41.3518C18.3183 40.01 13.5943 36.0494 10.7927 31.7917Z" fill="url(#paint1_radial)" fill-opacity="0.9"/>
<path opacity="0.24" d="M10.7927 31.7917C7.89581 27.3891 6.12607 16.7808 5.99994 11.7912C7.21914 11.7912 11.2242 11.0918 13.2999 10.2818C16.2999 9.11094 18.5357 6.93904 20.1333 6.0166C21.2263 6.72942 23.4053 9.14963 26.5585 10.2818C29.7117 11.4138 32.5999 11.867 33.9999 11.8005V12.4201C33.9999 17.9549 31.6035 26.6344 29.2071 31.7917C27.4802 35.5084 22.4804 39.8423 20.1261 41.3518C18.3183 40.01 13.5943 36.0494 10.7927 31.7917Z" fill="url(#paint2_radial)" fill-opacity="0.9"/>
</g>
<g filter="url(#filter1_d)">
<path d="M9.59997 32.2106C6.36665 27.25 4.27835 15.9915 4.1333 10.4433C5.5354 10.4433 10.2606 9.78244 12.6 8.76486C16.1666 7.21337 18.3333 5.01947 20.1333 3.78955C21.7666 5.05271 23.5333 7.32992 27.6666 8.76486C31.8 10.1997 34.19 10.5172 35.8 10.4433C35.8 16.5976 33.8333 25.8948 30.7 32.2106C28.028 37.5964 22.4 41.3851 20.1333 42.9807C18.0543 41.4887 13.0666 37.5292 9.59997 32.2106Z" stroke="url(#paint3_linear)"/>
</g>
<g filter="url(#filter2_d)">
<path d="M10.5999 31.8249C7.70301 27.4223 5.8594 16.624 5.73328 11.6343C6.95248 11.6343 11.4668 11.0538 13.4666 10.072C16.4666 8.59906 18.5357 6.97224 20.1333 6.0498C21.4666 6.84759 23.8081 8.66554 26.9333 10.072C30.0585 11.4784 32.5999 11.6343 34.3333 11.6343C34.3333 17.252 32.2999 26.7257 29.6333 31.8249C27.5195 35.867 22.5333 39.6232 20.1261 41.385C18.0666 39.7894 13.4015 36.0826 10.5999 31.8249Z" fill="url(#paint4_radial)" fill-opacity="0.9"/>
<path d="M10.5999 31.8249C7.70301 27.4223 5.8594 16.624 5.73328 11.6343C6.95248 11.6343 11.4668 11.0538 13.4666 10.072C16.4666 8.59906 18.5357 6.97224 20.1333 6.0498C21.4666 6.84759 23.8081 8.66554 26.9333 10.072C30.0585 11.4784 32.5999 11.6343 34.3333 11.6343C34.3333 17.252 32.2999 26.7257 29.6333 31.8249C27.5195 35.867 22.5333 39.6232 20.1261 41.385C18.0666 39.7894 13.4015 36.0826 10.5999 31.8249Z" fill="url(#paint5_radial)" fill-opacity="0.9"/>
<path d="M10.5999 31.8249C7.70301 27.4223 5.8594 16.624 5.73328 11.6343C6.95248 11.6343 11.4668 11.0538 13.4666 10.072C16.4666 8.59906 18.5357 6.97224 20.1333 6.0498C21.4666 6.84759 23.8081 8.66554 26.9333 10.072C30.0585 11.4784 32.5999 11.6343 34.3333 11.6343C34.3333 17.252 32.2999 26.7257 29.6333 31.8249C27.5195 35.867 22.5333 39.6232 20.1261 41.385C18.0666 39.7894 13.4015 36.0826 10.5999 31.8249Z" fill="url(#paint6_radial)" fill-opacity="0.9"/>
</g>
<path d="M13.3373 15.4089C12.2548 12.0036 17.2522 11.9216 19.0009 15.9075C19.8851 17.9228 19.7155 20.7881 19.5255 23.66C16.808 20.4756 13.9049 17.1944 13.3373 15.4089Z" fill="url(#paint7_linear)"/>
<path d="M20.3049 32.8511C29.2207 31.2821 32.9799 23.5915 29.6062 18.6975C28.0327 16.4151 25.5685 16.8388 20.3049 17.1532C15.0412 17.4675 9.80982 18.3491 9.80975 25.2098C9.80969 32.0704 16.2083 33.5721 20.3049 32.8511Z" fill="url(#paint8_radial)"/>
<path d="M20.3049 32.8511C29.2207 31.2821 32.9799 23.5915 29.6062 18.6975C28.0327 16.4151 25.5685 16.8388 20.3049 17.1532C15.0412 17.4675 9.80982 18.3491 9.80975 25.2098C9.80969 32.0704 16.2083 33.5721 20.3049 32.8511Z" fill="url(#paint9_linear)"/>
<g style="mix-blend-mode:hard-light">
<path style="mix-blend-mode:hard-light" d="M12.3917 24.7946C12.3915 20.2057 13.8137 15.9252 14.5293 13.8987C14.8237 13.0648 15.9256 12.8274 16.6602 13.3222C17.9111 14.0744 20.4312 15.9017 22.975 17.6535C25.6184 19.4739 29.4302 21.4865 27.6808 27.4544C26.3553 31.9761 19.8877 31.7715 19.8877 31.7715C19.8877 31.7715 12.3919 31.6471 12.3917 24.7946Z" fill="url(#paint10_linear)"/>
</g>
<path d="M26.8566 31.5621C30.5213 28.3644 31.7936 21.6803 29.3366 17.5275C26.8795 13.3748 23.379 12.4077 20.4663 12.5439C17.5537 12.68 11.6377 14.4961 11.3879 21.0158C11.138 27.5354 14.5382 30.3008 18.0946 33.4166C19.4688 34.6206 23.192 34.7596 26.8566 31.5621Z" fill="url(#paint11_linear)"/>
<path d="M13.5297 30.1604C13.814 30.5061 14.2591 31.0361 14.7334 31.3131C17.0668 32.6759 18.8684 31.9063 21.8298 31.134C24.9532 30.3194 30.0196 28.8515 30.8422 24.9641C31.3082 22.7617 29.6172 19.8034 27.349 17.4032C25.2828 15.2167 22.7622 13.4932 20.4787 13.226C19.9066 13.1591 19.2084 13.1528 18.4592 13.25C14.1216 14.1424 11.7802 16.5609 11.4225 21.4826C11.0649 26.4043 11.287 27.4332 13.5297 30.1604Z" fill="url(#paint12_linear)" fill-opacity="0.78"/>
<g style="mix-blend-mode:color-dodge">
<path style="mix-blend-mode:color-dodge" d="M8.79597 24.3932C8.1165 19.6855 10.1185 14.6104 14.6971 14.6104C18.3118 14.6104 20.3544 17.3661 23.1314 19.1763C26.5417 21.3992 29.1559 22.9323 29.1559 25.1841C29.1559 29.2693 23.0481 31.439 17.2224 29.1134C12.9717 27.4165 9.4755 29.101 8.79597 24.3932Z" fill="url(#paint13_radial)" fill-opacity="0.8"/>
</g>
<path d="M8.79597 24.3932C8.1165 19.6855 10.1185 14.6104 14.6971 14.6104C18.3118 14.6104 20.3544 17.3661 23.1314 19.1763C26.5417 21.3992 29.1559 22.9323 29.1559 25.1841C29.1559 29.2693 23.0481 31.439 17.2224 29.1134C12.9717 27.4165 9.4755 29.101 8.79597 24.3932Z" fill="url(#paint14_linear)"/>
<path d="M19.8756 31.3144C21.3748 35.4259 25.1647 34.1378 24.5813 30.899C24.3038 29.3583 21.991 26.5488 19.5254 23.6597C19.3397 26.4676 19.1344 29.2819 19.8756 31.3144Z" fill="url(#paint15_radial)"/>
<path d="M19.8756 31.3144C21.3748 35.4259 25.1647 34.1378 24.5813 30.899C24.3038 29.3583 21.991 26.5488 19.5254 23.6597C19.3397 26.4676 19.1344 29.2819 19.8756 31.3144Z" fill="url(#paint16_linear)"/>
<path d="M18.9065 18.8809H23.7333L20.6923 23.1086H23.578L16.4737 30.9806L19.0229 25.5079H16.2666L18.9065 18.8809Z" fill="#2B375C"/>
</g>
<defs>
<filter id="filter0_f" x="-84.0001" y="-83.9834" width="208" height="215.335" filterUnits="userSpaceOnUse" color-interpolation-filters="sRGB">
<feFlood flood-opacity="0" result="BackgroundImageFix"/>
<feBlend mode="normal" in="SourceGraphic" in2="BackgroundImageFix" result="shape"/>
<feGaussianBlur stdDeviation="45" result="effect1_foregroundBlur"/>
</filter>
<filter id="filter1_d" x="-46.3799" y="-27.8286" width="132.68" height="140.423" filterUnits="userSpaceOnUse" color-interpolation-filters="sRGB">
<feFlood flood-opacity="0" result="BackgroundImageFix"/>
<feColorMatrix in="SourceAlpha" type="matrix" values="0 0 0 0 0 0 0 0 0 0 0 0 0 0 0 0 0 0 127 0"/>
<feOffset dy="19"/>
<feGaussianBlur stdDeviation="25"/>
<feColorMatrix type="matrix" values="0 0 0 0 0.121569 0 0 0 0 0.145098 0 0 0 0 0.258824 0 0 0 0.25 0"/>
<feBlend mode="normal" in2="BackgroundImageFix" result="effect1_dropShadow"/>
<feBlend mode="normal" in="SourceGraphic" in2="effect1_dropShadow" result="shape"/>
</filter>
<filter id="filter2_d" x="-44.2667" y="-24.9502" width="128.6" height="135.335" filterUnits="userSpaceOnUse" color-interpolation-filters="sRGB">
<feFlood flood-opacity="0" result="BackgroundImageFix"/>
<feColorMatrix in="SourceAlpha" type="matrix" values="0 0 0 0 0 0 0 0 0 0 0 0 0 0 0 0 0 0 127 0"/>
<feOffset dy="19"/>
<feGaussianBlur stdDeviation="25"/>
<feColorMatrix type="matrix" values="0 0 0 0 0.121569 0 0 0 0 0.145098 0 0 0 0 0.258824 0 0 0 0.25 0"/>
<feBlend mode="normal" in2="BackgroundImageFix" result="effect1_dropShadow"/>
<feBlend mode="normal" in="SourceGraphic" in2="effect1_dropShadow" result="shape"/>
</filter>
<radialGradient id="paint0_radial" cx="0" cy="0" r="1" gradientUnits="userSpaceOnUse" gradientTransform="translate(15.0666 20.8088) rotate(80.4933) scale(16.9531 13.4318)">
<stop stop-color="#17137B"/>
<stop offset="0.479005" stop-color="#6319D3" stop-opacity="0.74"/>
<stop offset="0.645313" stop-color="#542C8F"/>
</radialGradient>
<radialGradient id="paint1_radial" cx="0" cy="0" r="1" gradientUnits="userSpaceOnUse" gradientTransform="translate(13.0999 25.7285) rotate(64.4502) scale(16.6166 13.1536)">
<stop offset="0.318341" stop-color="#1F405B" stop-opacity="0.69"/>
<stop offset="1" stop-color="#6319D3" stop-opacity="0.71"/>
</radialGradient>
<radialGradient id="paint2_radial" cx="0" cy="0" r="1" gradientUnits="userSpaceOnUse" gradientTransform="translate(19.0666 21.8726) rotate(88.0625) scale(27.6058 21.875)">
<stop stop-color="#244F6D"/>
<stop offset="1" stop-color="#5525B6"/>
</radialGradient>
<linearGradient id="paint3_linear" x1="33.9" y1="40.2549" x2="5.52437" y2="7.03586" gradientUnits="userSpaceOnUse">
<stop offset="0.0706125" stop-color="#7BE6F6"/>
<stop offset="0.39609" stop-color="#46349F"/>
<stop offset="0.89184" stop-color="#C76C9D"/>
</linearGradient>
<radialGradient id="paint4_radial" cx="0" cy="0" r="1" gradientUnits="userSpaceOnUse" gradientTransform="translate(15.0666 20.842) rotate(80.4933) scale(16.9531 13.4318)">
<stop stop-color="#17137B"/>
<stop offset="0.479005" stop-color="#6319D3" stop-opacity="0.74"/>
<stop offset="0.645313" stop-color="#542C8F"/>
</radialGradient>
<radialGradient id="paint5_radial" cx="0" cy="0" r="1" gradientUnits="userSpaceOnUse" gradientTransform="translate(13.0999 25.7617) rotate(64.4502) scale(16.6166 13.1536)">
<stop offset="0.318341" stop-color="#1F405B" stop-opacity="0.69"/>
<stop offset="1" stop-color="#6319D3" stop-opacity="0.71"/>
</radialGradient>
<radialGradient id="paint6_radial" cx="0" cy="0" r="1" gradientUnits="userSpaceOnUse" gradientTransform="translate(19.0666 21.9058) rotate(88.0625) scale(27.6058 21.875)">
<stop stop-color="#244F6D"/>
<stop offset="1" stop-color="#5525B6"/>
</radialGradient>
<linearGradient id="paint7_linear" x1="13.1854" y1="15.2429" x2="19.2204" y2="14.2408" gradientUnits="userSpaceOnUse">
<stop stop-color="#E375A0"/>
<stop offset="1" stop-color="#E375A0" stop-opacity="0"/>
</linearGradient>
<radialGradient id="paint8_radial" cx="0" cy="0" r="1" gradientUnits="userSpaceOnUse" gradientTransform="translate(14.8903 19.3126) rotate(69.2814) scale(10.1233 12.2189)">
<stop stop-color="#B850C1"/>
<stop offset="1" stop-color="#DCADE0" stop-opacity="0"/>
</radialGradient>
<linearGradient id="paint9_linear" x1="20.9912" y1="16.887" x2="20.8975" y2="20.0368" gradientUnits="userSpaceOnUse">
<stop stop-color="#B850C1"/>
<stop offset="1" stop-color="#DCADE0" stop-opacity="0"/>
</linearGradient>
<linearGradient id="paint10_linear" x1="13.9742" y1="26.9541" x2="21.7978" y2="23.9496" gradientUnits="userSpaceOnUse">
<stop stop-color="#7EA1E4"/>
<stop offset="1" stop-color="#70CBFF" stop-opacity="0"/>
</linearGradient>
<linearGradient id="paint11_linear" x1="30.5635" y1="22.3028" x2="21.0004" y2="26.6245" gradientUnits="userSpaceOnUse">
<stop stop-color="#5BAEEC"/>
<stop offset="1" stop-color="#5BAEEC" stop-opacity="0"/>
</linearGradient>
<linearGradient id="paint12_linear" x1="14.7686" y1="21.2908" x2="27.4623" y2="23.6573" gradientUnits="userSpaceOnUse">
<stop stop-color="#85FAFE" stop-opacity="0"/>
<stop offset="1" stop-color="#85FAFE"/>
</linearGradient>
<radialGradient id="paint13_radial" cx="0" cy="0" r="1" gradientUnits="userSpaceOnUse" gradientTransform="translate(14.1086 17.028) rotate(84.3616) scale(9.26465 10.3757)">
<stop stop-color="#65ECE8"/>
<stop offset="1" stop-color="#8BECE9" stop-opacity="0"/>
</radialGradient>
<linearGradient id="paint14_linear" x1="25.3283" y1="27.5584" x2="28.0506" y2="22.334" gradientUnits="userSpaceOnUse">
<stop stop-color="#7BE7F6" stop-opacity="0"/>
<stop offset="0.75" stop-color="#7BE7F6"/>
</linearGradient>
<radialGradient id="paint15_radial" cx="0" cy="0" r="1" gradientUnits="userSpaceOnUse" gradientTransform="translate(20.4706 32.9342) rotate(-68.153) scale(5.82033 7.48767)">
<stop stop-color="#E375A0" stop-opacity="0"/>
<stop offset="1" stop-color="#FF91C6"/>
</radialGradient>
<linearGradient id="paint16_linear" x1="19.8876" y1="24.8776" x2="20.3017" y2="27.7018" gradientUnits="userSpaceOnUse">
<stop stop-color="white"/>
<stop offset="1" stop-color="white" stop-opacity="0"/>
</linearGradient>
<clipPath id="clip0">
<rect width="40" height="48" fill="white"/>
</clipPath>
</defs>
</svg>
