<svg width="130" height="18" viewBox="0 0 130 18" fill="none" xmlns="http://www.w3.org/2000/svg">
<path d="M10.0293 17.2031H5.76367L0.0800781 0.292969H4.04101L7.9082 13.5586H7.99023L11.8574 0.292969H15.7129L10.0293 17.2031Z" fill="url(#paint0_linear)"/>
<path d="M17.4473 0.292969H24.3262C26.0684 0.292969 27.4785 0.824219 28.5566 1.88672C29.6426 2.94922 30.1855 4.34766 30.1855 6.08203C30.1855 7.80859 29.627 9.20703 28.5098 10.2773C27.3926 11.3398 25.9395 11.8711 24.1504 11.8711H20.9863V17.2031H17.4473V0.292969ZM20.9863 3.09375V9.10547H23.377C24.3926 9.10547 25.1816 8.84375 25.7441 8.32031C26.3066 7.79688 26.5879 7.05469 26.5879 6.09375C26.5879 5.13281 26.3066 4.39453 25.7441 3.87891C25.1895 3.35547 24.4043 3.09375 23.3887 3.09375H20.9863Z" fill="url(#paint1_linear)"/>
<path d="M35.6699 17.2031H32.2832V0.292969H35.2363L43.1348 11.3086H43.2285V0.292969H46.6152V17.2031H43.6855L35.7754 6.12891H35.6699V17.2031Z" fill="url(#paint2_linear)"/>
<path d="M48.8066 12.3867H52.2168C52.2949 13.0742 52.6582 13.6328 53.3066 14.0625C53.9629 14.4844 54.7637 14.6953 55.709 14.6953C56.6465 14.6953 57.4082 14.4961 57.9941 14.0977C58.5879 13.6914 58.8848 13.1758 58.8848 12.5508C58.8848 12.0039 58.666 11.5625 58.2285 11.2266C57.791 10.8906 57.0605 10.6094 56.0371 10.3828L53.834 9.90234C50.7324 9.23828 49.1816 7.66406 49.1816 5.17969C49.1816 3.63281 49.7832 2.38281 50.9863 1.42969C52.1973 0.476562 53.752 0 55.6504 0C57.6035 0 59.1621 0.464844 60.3262 1.39453C61.4902 2.31641 62.0879 3.54688 62.1191 5.08594H58.8027C58.748 4.375 58.4316 3.81641 57.8535 3.41016C57.2832 2.99609 56.5527 2.78906 55.6621 2.78906C54.7871 2.78906 54.0801 2.98047 53.541 3.36328C53.0098 3.74609 52.7441 4.25 52.7441 4.875C52.7441 5.39062 52.959 5.80859 53.3887 6.12891C53.8262 6.44922 54.5332 6.72266 55.5098 6.94922L57.5605 7.38281C59.2559 7.74219 60.4902 8.30469 61.2637 9.07031C62.0371 9.82812 62.4238 10.8516 62.4238 12.1406C62.4238 13.7813 61.8066 15.0859 60.5723 16.0547C59.3379 17.0156 57.6699 17.4961 55.5684 17.4961C53.5293 17.4961 51.9043 17.043 50.6934 16.1367C49.4902 15.2227 48.8613 13.9727 48.8066 12.3867Z" fill="url(#paint3_linear)"/>
<path d="M79.2988 17.2031H75.7598V10.0781H68.1426V17.2031H64.6035V0.292969H68.1426V7.16016H75.7598V0.292969H79.2988V17.2031Z" fill="url(#paint4_linear)"/>
<path d="M85.6504 17.2031H82.1113V0.292969H85.6504V17.2031Z" fill="url(#paint5_linear)"/>
<path d="M99.666 14.2734V17.2031H88.4629V0.292969H99.666V3.21094H92.002V7.28906H99.2324V10.0078H92.002V14.2734H99.666Z" fill="url(#paint6_linear)"/>
<path d="M113.154 14.2734V17.2031H102.221V0.292969H105.76V14.2734H113.154Z" fill="url(#paint7_linear)"/>
<path d="M115.252 0.292969H121.709C124.256 0.292969 126.236 1.02344 127.65 2.48438C129.064 3.94531 129.771 6.01172 129.771 8.68359C129.771 11.3633 129.061 13.4531 127.639 14.9531C126.225 16.4531 124.248 17.2031 121.709 17.2031H115.252V0.292969ZM118.791 3.21094V14.2734H121.287C122.873 14.2734 124.08 13.8008 124.908 12.8555C125.744 11.9023 126.162 10.5156 126.162 8.69531C126.162 6.92969 125.74 5.57422 124.896 4.62891C124.053 3.68359 122.85 3.21094 121.287 3.21094H118.791Z" fill="url(#paint8_linear)"/>
<defs>
<linearGradient id="paint0_linear" x1="45.2559" y1="-19.6831" x2="56.5136" y2="40.3997" gradientUnits="userSpaceOnUse">
<stop stop-color="#FED507"/>
<stop offset="1" stop-color="#FE590F"/>
</linearGradient>
<linearGradient id="paint1_linear" x1="45.2559" y1="-19.6831" x2="56.5136" y2="40.3997" gradientUnits="userSpaceOnUse">
<stop stop-color="#FED507"/>
<stop offset="1" stop-color="#FE590F"/>
</linearGradient>
<linearGradient id="paint2_linear" x1="45.2559" y1="-19.6831" x2="56.5136" y2="40.3997" gradientUnits="userSpaceOnUse">
<stop stop-color="#FED507"/>
<stop offset="1" stop-color="#FE590F"/>
</linearGradient>
<linearGradient id="paint3_linear" x1="45.2559" y1="-19.6831" x2="56.5136" y2="40.3997" gradientUnits="userSpaceOnUse">
<stop stop-color="#FED507"/>
<stop offset="1" stop-color="#FE590F"/>
</linearGradient>
<linearGradient id="paint4_linear" x1="45.2559" y1="-19.6831" x2="56.5136" y2="40.3997" gradientUnits="userSpaceOnUse">
<stop stop-color="#FED507"/>
<stop offset="1" stop-color="#FE590F"/>
</linearGradient>
<linearGradient id="paint5_linear" x1="45.2559" y1="-19.6831" x2="56.5136" y2="40.3997" gradientUnits="userSpaceOnUse">
<stop stop-color="#FED507"/>
<stop offset="1" stop-color="#FE590F"/>
</linearGradient>
<linearGradient id="paint6_linear" x1="45.2559" y1="-19.6831" x2="56.5136" y2="40.3997" gradientUnits="userSpaceOnUse">
<stop stop-color="#FED507"/>
<stop offset="1" stop-color="#FE590F"/>
</linearGradient>
<linearGradient id="paint7_linear" x1="45.2559" y1="-19.6831" x2="56.5136" y2="40.3997" gradientUnits="userSpaceOnUse">
<stop stop-color="#FED507"/>
<stop offset="1" stop-color="#FE590F"/>
</linearGradient>
<linearGradient id="paint8_linear" x1="45.2559" y1="-19.6831" x2="56.5136" y2="40.3997" gradientUnits="userSpaceOnUse">
<stop stop-color="#FED507"/>
<stop offset="1" stop-color="#FE590F"/>
</linearGradient>
</defs>
</svg>
