<svg width="35" height="33" viewBox="0 0 35 33" fill="none" xmlns="http://www.w3.org/2000/svg">
<path d="M14.4238 2.51514V15.4761H0V5.22217C0 4.70947 0.389512 4.27874 0.902207 4.19678L7.24609 3.41748L14.4238 2.51514Z" fill="#FF637B"/>
<path d="M14.4238 17.5269V30.4878L7.24609 29.5855L0.902207 28.8062C0.389512 28.7241 0 28.2935 0 27.7808V17.5269H14.4238Z" fill="#25D9F8"/>
<path d="M35 17.5269V31.8823C35 32.1694 34.8768 32.4565 34.6515 32.6616C34.4667 32.8256 34.2207 32.9077 33.9746 32.9077H33.8514L25.7031 31.9028L16.4746 30.7544V17.5269H35Z" fill="#FDBF00"/>
<path d="M35 1.12075V15.4762H16.4746V2.26919L25.7031 1.10025L33.8514 0.0953632C34.1388 0.0748554 34.4257 0.156818 34.6515 0.341457C34.8768 0.546467 35 0.833576 35 1.12075Z" fill="#7FE881"/>
<path d="M14.4238 2.51514V15.4761H7.24609V3.41748L14.4238 2.51514Z" fill="#E63950"/>
<path d="M7.24609 17.5269H14.4238V30.4878L7.24609 29.5855V17.5269Z" fill="#00C0F1"/>
<path d="M35 1.12075V15.4762H25.7031V1.10025L33.8514 0.0953632C34.1388 0.0748554 34.4257 0.156818 34.6515 0.341457C34.8768 0.546467 35 0.833576 35 1.12075Z" fill="#5BC980"/>
<path d="M25.7031 17.5269H35V31.8823C35 32.1694 34.8768 32.4565 34.6515 32.6616C34.4667 32.8256 34.2207 32.9077 33.9746 32.9077H33.8514L25.7031 31.9028V17.5269Z" fill="#FF9100"/>
</svg>
